<?xml version="1.0" encoding="utf-8"?>
<!-- Generator: Adobe Illustrator 22.1.0, SVG Export Plug-In . SVG Version: 6.00 Build 0)  -->
<svg version="1.1" id="Layer_1" xmlns="http://www.w3.org/2000/svg" xmlns:xlink="http://www.w3.org/1999/xlink" x="0px" y="0px"
	 viewBox="0 0 9.4 9.1" style="enable-background:new 0 0 9.4 9.1;" xml:space="preserve">
<style type="text/css">
	.st0{fill:#E5E3E3;}
</style>
<path class="st0" d="M9.3,0.4L9.3,0.4c0.1,0.1,0.1,0.3,0,0.4L1.1,9C1,9.1,0.7,9.1,0.5,9l0,0c-0.4-0.4-0.4-1,0-1.4l7.2-7.2
	C8.1,0,8.8,0,9.3,0.4z"/>
<path class="st0" d="M8.8,8.9L8.8,8.9c-0.2,0.2-0.4,0.2-0.6,0l-8-8C0,0.7,0,0.5,0.1,0.3l0,0c0.4-0.4,1-0.4,1.4,0l7.3,7.3
	C9.2,8,9.2,8.6,8.8,8.9z"/>
</svg>
